<svg width="28" height="32" viewBox="0 0 28 32" fill="none" xmlns="http://www.w3.org/2000/svg">
<g clip-path="url(#clip0_8308_4)">
<path d="M14.0061 8.81251C10.0311 8.81251 6.8248 12.0188 6.8248 15.9938C6.8248 19.9688 10.0311 23.175 14.0061 23.175C17.9811 23.175 21.1873 19.9688 21.1873 15.9938C21.1873 12.0188 17.9811 8.81251 14.0061 8.81251ZM14.0061 20.6625C11.4373 20.6625 9.3373 18.5688 9.3373 15.9938C9.3373 13.4188 11.4311 11.325 14.0061 11.325C16.5811 11.325 18.6748 13.4188 18.6748 15.9938C18.6748 18.5688 16.5748 20.6625 14.0061 20.6625ZM23.1561 8.51876C23.1561 9.45001 22.4061 10.1938 21.4811 10.1938C20.5498 10.1938 19.8061 9.44376 19.8061 8.51876C19.8061 7.59376 20.5561 6.84376 21.4811 6.84376C22.4061 6.84376 23.1561 7.59376 23.1561 8.51876ZM27.9123 10.2188C27.8061 7.97501 27.2936 5.98751 25.6498 4.35001C24.0123 2.71251 22.0248 2.20001 19.7811 2.08751C17.4686 1.95626 10.5373 1.95626 8.2248 2.08751C5.9873 2.19376 3.9998 2.70626 2.35605 4.34376C0.712305 5.98126 0.206055 7.96876 0.0935547 10.2125C-0.0376953 12.525 -0.0376953 19.4563 0.0935547 21.7688C0.199805 24.0125 0.712305 26 2.35605 27.6375C3.9998 29.275 5.98105 29.7875 8.2248 29.9C10.5373 30.0313 17.4686 30.0313 19.7811 29.9C22.0248 29.7938 24.0123 29.2813 25.6498 27.6375C27.2873 26 27.7998 24.0125 27.9123 21.7688C28.0436 19.4563 28.0436 12.5313 27.9123 10.2188ZM24.9248 24.25C24.4373 25.475 23.4936 26.4188 22.2623 26.9125C20.4186 27.6438 16.0436 27.475 14.0061 27.475C11.9686 27.475 7.5873 27.6375 5.7498 26.9125C4.5248 26.425 3.58105 25.4813 3.0873 24.25C2.35605 22.4063 2.5248 18.0313 2.5248 15.9938C2.5248 13.9563 2.3623 9.57501 3.0873 7.73751C3.5748 6.51251 4.51855 5.56876 5.7498 5.07501C7.59355 4.34376 11.9686 4.51251 14.0061 4.51251C16.0436 4.51251 20.4248 4.35001 22.2623 5.07501C23.4873 5.56251 24.4311 6.50626 24.9248 7.73751C25.6561 9.58126 25.4873 13.9563 25.4873 15.9938C25.4873 18.0313 25.6561 22.4125 24.9248 24.25Z" fill="white"/>
</g>
<defs>
<clipPath id="clip0_8308_4">
<rect width="28" height="32" fill="white"/>
</clipPath>
</defs>
</svg>
