<svg width="32" height="29" viewBox="0 0 32 29" fill="none" xmlns="http://www.w3.org/2000/svg">
<path d="M30.5369 6.89349C30.1879 5.5796 29.1598 4.54482 27.8544 4.19365C25.4883 3.55554 16.0005 3.55554 16.0005 3.55554C16.0005 3.55554 6.51269 3.55554 4.14652 4.19365C2.84113 4.54488 1.81302 5.5796 1.46408 6.89349C0.830078 9.27499 0.830078 14.2438 0.830078 14.2438C0.830078 14.2438 0.830078 19.2125 1.46408 21.594C1.81302 22.9079 2.84113 23.8996 4.14652 24.2508C6.51269 24.8889 16.0005 24.8889 16.0005 24.8889C16.0005 24.8889 25.4882 24.8889 27.8544 24.2508C29.1598 23.8996 30.1879 22.9079 30.5369 21.594C31.1709 19.2125 31.1709 14.2438 31.1709 14.2438C31.1709 14.2438 31.1709 9.27499 30.5369 6.89349ZM12.8974 18.755V9.73249L20.8274 14.2439L12.8974 18.755Z" fill="white"/>
</svg>
